<mxfile host="Electron" agent="Mozilla/5.0 (Windows NT 10.0; Win64; x64) AppleWebKit/537.36 (KHTML, like Gecko) draw.io/24.7.17 Chrome/128.0.6613.36 Electron/32.0.1 Safari/537.36" version="24.7.17" pages="2">
  <diagram name="Página-1" id="iOZDhYMlCNYjXKzJ0bVh">
    <mxGraphModel dx="1232" dy="1180" grid="1" gridSize="10" guides="1" tooltips="1" connect="1" arrows="1" fold="1" page="1" pageScale="1" pageWidth="827" pageHeight="1169" math="0" shadow="0">
      <root>
        <mxCell id="0" />
        <mxCell id="1" parent="0" />
        <mxCell id="hlXV9Y0_xZ3Ad-fcJKW2-1" value="COMPAÑIA DE TEATRO" style="text;html=1;align=center;verticalAlign=middle;resizable=0;points=[];autosize=1;strokeColor=none;fillColor=none;" parent="1" vertex="1">
          <mxGeometry x="334" y="8" width="160" height="30" as="geometry" />
        </mxCell>
        <mxCell id="Ys6KLxV_ayAURLFjY9sA-10" value="" style="rounded=0;orthogonalLoop=1;jettySize=auto;html=1;endArrow=none;endFill=0;" edge="1" parent="1" source="hlXV9Y0_xZ3Ad-fcJKW2-2" target="hlXV9Y0_xZ3Ad-fcJKW2-6">
          <mxGeometry relative="1" as="geometry" />
        </mxCell>
        <mxCell id="Ys6KLxV_ayAURLFjY9sA-11" value="" style="rounded=0;orthogonalLoop=1;jettySize=auto;html=1;endArrow=none;endFill=0;" edge="1" parent="1" source="hlXV9Y0_xZ3Ad-fcJKW2-2" target="hlXV9Y0_xZ3Ad-fcJKW2-3">
          <mxGeometry relative="1" as="geometry" />
        </mxCell>
        <mxCell id="hlXV9Y0_xZ3Ad-fcJKW2-2" value="OBRAS DE TEATRO" style="rounded=0;whiteSpace=wrap;html=1;" parent="1" vertex="1">
          <mxGeometry x="164" y="348.5" width="130" height="40" as="geometry" />
        </mxCell>
        <mxCell id="hlXV9Y0_xZ3Ad-fcJKW2-3" value="&lt;u&gt;Codigo&lt;/u&gt;" style="ellipse;whiteSpace=wrap;html=1;" parent="1" vertex="1">
          <mxGeometry x="194" y="268.5" width="70" height="40" as="geometry" />
        </mxCell>
        <mxCell id="hlXV9Y0_xZ3Ad-fcJKW2-4" value="Titulo" style="ellipse;whiteSpace=wrap;html=1;" parent="1" vertex="1">
          <mxGeometry x="74" y="278.5" width="70" height="40" as="geometry" />
        </mxCell>
        <mxCell id="hlXV9Y0_xZ3Ad-fcJKW2-5" value="Duracion" style="ellipse;whiteSpace=wrap;html=1;" parent="1" vertex="1">
          <mxGeometry x="74" y="408.5" width="70" height="45.5" as="geometry" />
        </mxCell>
        <mxCell id="hlXV9Y0_xZ3Ad-fcJKW2-6" value="Lengua" style="ellipse;whiteSpace=wrap;html=1;" parent="1" vertex="1">
          <mxGeometry x="194" y="434" width="70" height="40" as="geometry" />
        </mxCell>
        <mxCell id="Ys6KLxV_ayAURLFjY9sA-1" value="AUTOR" style="rounded=0;whiteSpace=wrap;html=1;" vertex="1" parent="1">
          <mxGeometry x="514" y="348.5" width="70" height="40" as="geometry" />
        </mxCell>
        <mxCell id="Ys6KLxV_ayAURLFjY9sA-3" value="&lt;u&gt;Nombre&lt;/u&gt;" style="ellipse;whiteSpace=wrap;html=1;" vertex="1" parent="1">
          <mxGeometry x="514" y="263" width="70" height="45.5" as="geometry" />
        </mxCell>
        <mxCell id="Ys6KLxV_ayAURLFjY9sA-4" value="Pseudonimo" style="ellipse;whiteSpace=wrap;html=1;" vertex="1" parent="1">
          <mxGeometry x="634" y="278.5" width="90" height="61" as="geometry" />
        </mxCell>
        <mxCell id="Ys6KLxV_ayAURLFjY9sA-5" value="Fecha nacimiento" style="ellipse;whiteSpace=wrap;html=1;" vertex="1" parent="1">
          <mxGeometry x="634" y="398.5" width="120" height="55.5" as="geometry" />
        </mxCell>
        <mxCell id="Ys6KLxV_ayAURLFjY9sA-6" value="Escribir" style="rhombus;whiteSpace=wrap;html=1;" vertex="1" parent="1">
          <mxGeometry x="364" y="328.5" width="80" height="80" as="geometry" />
        </mxCell>
        <mxCell id="Ys6KLxV_ayAURLFjY9sA-7" value="Fecha defuncion" style="ellipse;whiteSpace=wrap;html=1;" vertex="1" parent="1">
          <mxGeometry x="484" y="429" width="130" height="50" as="geometry" />
        </mxCell>
        <mxCell id="Ys6KLxV_ayAURLFjY9sA-8" value="" style="endArrow=none;html=1;rounded=0;exitX=1;exitY=0.5;exitDx=0;exitDy=0;entryX=0;entryY=0.5;entryDx=0;entryDy=0;" edge="1" parent="1" source="hlXV9Y0_xZ3Ad-fcJKW2-2" target="Ys6KLxV_ayAURLFjY9sA-6">
          <mxGeometry width="50" height="50" relative="1" as="geometry">
            <mxPoint x="394" y="538.5" as="sourcePoint" />
            <mxPoint x="444" y="488.5" as="targetPoint" />
          </mxGeometry>
        </mxCell>
        <mxCell id="Ys6KLxV_ayAURLFjY9sA-9" value="" style="endArrow=none;html=1;rounded=0;exitX=1;exitY=0.5;exitDx=0;exitDy=0;entryX=0;entryY=0.5;entryDx=0;entryDy=0;" edge="1" parent="1" source="Ys6KLxV_ayAURLFjY9sA-6" target="Ys6KLxV_ayAURLFjY9sA-1">
          <mxGeometry width="50" height="50" relative="1" as="geometry">
            <mxPoint x="304" y="378.5" as="sourcePoint" />
            <mxPoint x="374" y="378.5" as="targetPoint" />
          </mxGeometry>
        </mxCell>
        <mxCell id="Ys6KLxV_ayAURLFjY9sA-12" value="" style="endArrow=none;html=1;rounded=0;exitX=0;exitY=1;exitDx=0;exitDy=0;entryX=1;entryY=0;entryDx=0;entryDy=0;" edge="1" parent="1" source="hlXV9Y0_xZ3Ad-fcJKW2-2" target="hlXV9Y0_xZ3Ad-fcJKW2-5">
          <mxGeometry width="50" height="50" relative="1" as="geometry">
            <mxPoint x="314" y="388.5" as="sourcePoint" />
            <mxPoint x="384" y="388.5" as="targetPoint" />
          </mxGeometry>
        </mxCell>
        <mxCell id="Ys6KLxV_ayAURLFjY9sA-13" value="" style="endArrow=none;html=1;rounded=0;exitX=0;exitY=0;exitDx=0;exitDy=0;entryX=1;entryY=1;entryDx=0;entryDy=0;" edge="1" parent="1" source="hlXV9Y0_xZ3Ad-fcJKW2-2" target="hlXV9Y0_xZ3Ad-fcJKW2-4">
          <mxGeometry width="50" height="50" relative="1" as="geometry">
            <mxPoint x="324" y="398.5" as="sourcePoint" />
            <mxPoint x="394" y="398.5" as="targetPoint" />
          </mxGeometry>
        </mxCell>
        <mxCell id="Ys6KLxV_ayAURLFjY9sA-14" value="" style="rounded=0;orthogonalLoop=1;jettySize=auto;html=1;endArrow=none;endFill=0;entryX=0.5;entryY=1;entryDx=0;entryDy=0;exitX=0.5;exitY=0;exitDx=0;exitDy=0;" edge="1" parent="1" source="Ys6KLxV_ayAURLFjY9sA-1" target="Ys6KLxV_ayAURLFjY9sA-3">
          <mxGeometry relative="1" as="geometry">
            <mxPoint x="239" y="358.5" as="sourcePoint" />
            <mxPoint x="239" y="318.5" as="targetPoint" />
          </mxGeometry>
        </mxCell>
        <mxCell id="Ys6KLxV_ayAURLFjY9sA-15" value="" style="rounded=0;orthogonalLoop=1;jettySize=auto;html=1;endArrow=none;endFill=0;entryX=-0.011;entryY=0.672;entryDx=0;entryDy=0;exitX=1;exitY=0;exitDx=0;exitDy=0;entryPerimeter=0;" edge="1" parent="1" source="Ys6KLxV_ayAURLFjY9sA-1" target="Ys6KLxV_ayAURLFjY9sA-4">
          <mxGeometry relative="1" as="geometry">
            <mxPoint x="559" y="358.5" as="sourcePoint" />
            <mxPoint x="559" y="318.5" as="targetPoint" />
          </mxGeometry>
        </mxCell>
        <mxCell id="Ys6KLxV_ayAURLFjY9sA-16" value="" style="rounded=0;orthogonalLoop=1;jettySize=auto;html=1;endArrow=none;endFill=0;entryX=0;entryY=0;entryDx=0;entryDy=0;exitX=1;exitY=1;exitDx=0;exitDy=0;" edge="1" parent="1" source="Ys6KLxV_ayAURLFjY9sA-1" target="Ys6KLxV_ayAURLFjY9sA-5">
          <mxGeometry relative="1" as="geometry">
            <mxPoint x="569" y="368.5" as="sourcePoint" />
            <mxPoint x="569" y="328.5" as="targetPoint" />
          </mxGeometry>
        </mxCell>
        <mxCell id="Ys6KLxV_ayAURLFjY9sA-17" value="" style="rounded=0;orthogonalLoop=1;jettySize=auto;html=1;endArrow=none;endFill=0;entryX=0.5;entryY=1;entryDx=0;entryDy=0;exitX=0.5;exitY=0;exitDx=0;exitDy=0;" edge="1" parent="1" source="Ys6KLxV_ayAURLFjY9sA-7" target="Ys6KLxV_ayAURLFjY9sA-1">
          <mxGeometry relative="1" as="geometry">
            <mxPoint x="579" y="378.5" as="sourcePoint" />
            <mxPoint x="579" y="338.5" as="targetPoint" />
          </mxGeometry>
        </mxCell>
        <mxCell id="Ys6KLxV_ayAURLFjY9sA-18" value="(1,N)" style="text;html=1;align=center;verticalAlign=middle;resizable=0;points=[];autosize=1;strokeColor=none;fillColor=none;" vertex="1" parent="1">
          <mxGeometry x="294" y="318.5" width="50" height="30" as="geometry" />
        </mxCell>
        <mxCell id="Ys6KLxV_ayAURLFjY9sA-19" value="(1,N)" style="text;html=1;align=center;verticalAlign=middle;resizable=0;points=[];autosize=1;strokeColor=none;fillColor=none;" vertex="1" parent="1">
          <mxGeometry x="464" y="318.5" width="50" height="30" as="geometry" />
        </mxCell>
        <mxCell id="Ys6KLxV_ayAURLFjY9sA-21" value="" style="rounded=0;orthogonalLoop=1;jettySize=auto;html=1;endArrow=none;endFill=0;entryX=0.5;entryY=1;entryDx=0;entryDy=0;" edge="1" parent="1" source="Ys6KLxV_ayAURLFjY9sA-20" target="Ys6KLxV_ayAURLFjY9sA-22">
          <mxGeometry relative="1" as="geometry">
            <mxPoint x="308" y="696" as="targetPoint" />
          </mxGeometry>
        </mxCell>
        <mxCell id="Ys6KLxV_ayAURLFjY9sA-20" value="ACTOR" style="rounded=0;whiteSpace=wrap;html=1;" vertex="1" parent="1">
          <mxGeometry x="248" y="616" width="92" height="40" as="geometry" />
        </mxCell>
        <mxCell id="Ys6KLxV_ayAURLFjY9sA-22" value="Aparecer" style="rhombus;whiteSpace=wrap;html=1;" vertex="1" parent="1">
          <mxGeometry x="250" y="481" width="90" height="60" as="geometry" />
        </mxCell>
        <mxCell id="Ys6KLxV_ayAURLFjY9sA-23" value="" style="endArrow=none;html=1;rounded=0;exitX=0.5;exitY=0;exitDx=0;exitDy=0;entryX=1;entryY=1;entryDx=0;entryDy=0;" edge="1" parent="1" source="Ys6KLxV_ayAURLFjY9sA-22" target="hlXV9Y0_xZ3Ad-fcJKW2-2">
          <mxGeometry width="50" height="50" relative="1" as="geometry">
            <mxPoint x="390" y="416" as="sourcePoint" />
            <mxPoint x="290" y="406" as="targetPoint" />
          </mxGeometry>
        </mxCell>
        <mxCell id="Ys6KLxV_ayAURLFjY9sA-24" value="" style="rounded=0;orthogonalLoop=1;jettySize=auto;html=1;endArrow=none;endFill=0;exitX=1;exitY=1;exitDx=0;exitDy=0;" edge="1" parent="1" target="Ys6KLxV_ayAURLFjY9sA-25" source="Ys6KLxV_ayAURLFjY9sA-20">
          <mxGeometry relative="1" as="geometry">
            <mxPoint x="599" y="686.5" as="sourcePoint" />
          </mxGeometry>
        </mxCell>
        <mxCell id="Ys6KLxV_ayAURLFjY9sA-25" value="Nombre" style="ellipse;whiteSpace=wrap;html=1;" vertex="1" parent="1">
          <mxGeometry x="340" y="696" width="70" height="40" as="geometry" />
        </mxCell>
        <mxCell id="Ys6KLxV_ayAURLFjY9sA-26" value="&lt;u&gt;DNI&lt;/u&gt;" style="ellipse;whiteSpace=wrap;html=1;" vertex="1" parent="1">
          <mxGeometry x="380" y="616" width="70" height="40" as="geometry" />
        </mxCell>
        <mxCell id="Ys6KLxV_ayAURLFjY9sA-27" value="" style="endArrow=none;html=1;rounded=0;exitX=1;exitY=0.5;exitDx=0;exitDy=0;entryX=0;entryY=0.5;entryDx=0;entryDy=0;" edge="1" parent="1" target="Ys6KLxV_ayAURLFjY9sA-26" source="Ys6KLxV_ayAURLFjY9sA-20">
          <mxGeometry width="50" height="50" relative="1" as="geometry">
            <mxPoint x="534" y="686.5" as="sourcePoint" />
            <mxPoint x="764" y="736" as="targetPoint" />
          </mxGeometry>
        </mxCell>
        <mxCell id="Ys6KLxV_ayAURLFjY9sA-28" value="Edad" style="ellipse;whiteSpace=wrap;html=1;" vertex="1" parent="1">
          <mxGeometry x="170" y="696" width="70" height="40" as="geometry" />
        </mxCell>
        <mxCell id="Ys6KLxV_ayAURLFjY9sA-29" value="Personaje_ID" style="ellipse;whiteSpace=wrap;html=1;" vertex="1" parent="1">
          <mxGeometry x="142" y="603" width="80" height="66" as="geometry" />
        </mxCell>
        <mxCell id="Ys6KLxV_ayAURLFjY9sA-31" value="" style="rounded=0;orthogonalLoop=1;jettySize=auto;html=1;endArrow=none;endFill=0;exitX=0;exitY=1;exitDx=0;exitDy=0;entryX=1;entryY=0;entryDx=0;entryDy=0;" edge="1" parent="1" source="Ys6KLxV_ayAURLFjY9sA-20" target="Ys6KLxV_ayAURLFjY9sA-28">
          <mxGeometry relative="1" as="geometry">
            <mxPoint x="350" y="666" as="sourcePoint" />
            <mxPoint x="374" y="707" as="targetPoint" />
          </mxGeometry>
        </mxCell>
        <mxCell id="Ys6KLxV_ayAURLFjY9sA-32" value="" style="endArrow=none;html=1;rounded=0;exitX=0;exitY=0.5;exitDx=0;exitDy=0;entryX=1;entryY=0.5;entryDx=0;entryDy=0;" edge="1" parent="1" source="Ys6KLxV_ayAURLFjY9sA-20" target="Ys6KLxV_ayAURLFjY9sA-29">
          <mxGeometry width="50" height="50" relative="1" as="geometry">
            <mxPoint x="350" y="646" as="sourcePoint" />
            <mxPoint x="390" y="646" as="targetPoint" />
          </mxGeometry>
        </mxCell>
        <mxCell id="Ys6KLxV_ayAURLFjY9sA-33" value="PERSONAJE" style="rounded=0;whiteSpace=wrap;html=1;" vertex="1" parent="1">
          <mxGeometry x="249" y="840" width="92" height="40" as="geometry" />
        </mxCell>
        <mxCell id="Ys6KLxV_ayAURLFjY9sA-34" value="Nombre" style="ellipse;whiteSpace=wrap;html=1;" vertex="1" parent="1">
          <mxGeometry x="394" y="837.25" width="70" height="45.5" as="geometry" />
        </mxCell>
        <mxCell id="Ys6KLxV_ayAURLFjY9sA-35" value="Descripcion" style="ellipse;whiteSpace=wrap;html=1;" vertex="1" parent="1">
          <mxGeometry x="252" y="920" width="86" height="50" as="geometry" />
        </mxCell>
        <mxCell id="Ys6KLxV_ayAURLFjY9sA-36" value="&lt;u&gt;Obra_ID&lt;/u&gt;" style="ellipse;whiteSpace=wrap;html=1;" vertex="1" parent="1">
          <mxGeometry x="124" y="837.25" width="70" height="45.5" as="geometry" />
        </mxCell>
        <mxCell id="Ys6KLxV_ayAURLFjY9sA-37" value="Interpretar" style="rhombus;whiteSpace=wrap;html=1;" vertex="1" parent="1">
          <mxGeometry x="240" y="730" width="110" height="76" as="geometry" />
        </mxCell>
        <mxCell id="Ys6KLxV_ayAURLFjY9sA-38" value="" style="endArrow=none;html=1;rounded=0;exitX=0.5;exitY=0;exitDx=0;exitDy=0;entryX=0.5;entryY=1;entryDx=0;entryDy=0;" edge="1" parent="1" source="Ys6KLxV_ayAURLFjY9sA-37" target="Ys6KLxV_ayAURLFjY9sA-20">
          <mxGeometry width="50" height="50" relative="1" as="geometry">
            <mxPoint x="305" y="536" as="sourcePoint" />
            <mxPoint x="304" y="399" as="targetPoint" />
          </mxGeometry>
        </mxCell>
        <mxCell id="Ys6KLxV_ayAURLFjY9sA-39" value="" style="endArrow=none;html=1;rounded=0;exitX=0.5;exitY=0;exitDx=0;exitDy=0;entryX=0.5;entryY=1;entryDx=0;entryDy=0;" edge="1" parent="1" source="Ys6KLxV_ayAURLFjY9sA-33" target="Ys6KLxV_ayAURLFjY9sA-37">
          <mxGeometry width="50" height="50" relative="1" as="geometry">
            <mxPoint x="315" y="546" as="sourcePoint" />
            <mxPoint x="314" y="409" as="targetPoint" />
          </mxGeometry>
        </mxCell>
        <mxCell id="Ys6KLxV_ayAURLFjY9sA-40" value="(1,N)" style="text;html=1;align=center;verticalAlign=middle;resizable=0;points=[];autosize=1;strokeColor=none;fillColor=none;" vertex="1" parent="1">
          <mxGeometry x="294" y="585" width="50" height="30" as="geometry" />
        </mxCell>
        <mxCell id="Ys6KLxV_ayAURLFjY9sA-41" value="(1,N)" style="text;html=1;align=center;verticalAlign=middle;resizable=0;points=[];autosize=1;strokeColor=none;fillColor=none;" vertex="1" parent="1">
          <mxGeometry x="244" y="388.5" width="50" height="30" as="geometry" />
        </mxCell>
        <mxCell id="Ys6KLxV_ayAURLFjY9sA-42" value="(N,M)" style="text;html=1;align=center;verticalAlign=middle;resizable=0;points=[];autosize=1;strokeColor=none;fillColor=none;" vertex="1" parent="1">
          <mxGeometry x="294" y="810" width="50" height="30" as="geometry" />
        </mxCell>
        <mxCell id="Ys6KLxV_ayAURLFjY9sA-44" value="(N,M)" style="text;html=1;align=center;verticalAlign=middle;resizable=0;points=[];autosize=1;strokeColor=none;fillColor=none;" vertex="1" parent="1">
          <mxGeometry x="294" y="656" width="50" height="30" as="geometry" />
        </mxCell>
        <mxCell id="Ys6KLxV_ayAURLFjY9sA-45" value="" style="endArrow=none;html=1;rounded=0;exitX=1;exitY=0.5;exitDx=0;exitDy=0;entryX=0;entryY=0.5;entryDx=0;entryDy=0;" edge="1" parent="1" source="Ys6KLxV_ayAURLFjY9sA-33" target="Ys6KLxV_ayAURLFjY9sA-34">
          <mxGeometry width="50" height="50" relative="1" as="geometry">
            <mxPoint x="350" y="646" as="sourcePoint" />
            <mxPoint x="390" y="646" as="targetPoint" />
          </mxGeometry>
        </mxCell>
        <mxCell id="Ys6KLxV_ayAURLFjY9sA-46" value="" style="endArrow=none;html=1;rounded=0;exitX=0;exitY=0.5;exitDx=0;exitDy=0;entryX=1;entryY=0.5;entryDx=0;entryDy=0;" edge="1" parent="1" source="Ys6KLxV_ayAURLFjY9sA-33" target="Ys6KLxV_ayAURLFjY9sA-36">
          <mxGeometry width="50" height="50" relative="1" as="geometry">
            <mxPoint x="351" y="870" as="sourcePoint" />
            <mxPoint x="404" y="870" as="targetPoint" />
          </mxGeometry>
        </mxCell>
        <mxCell id="Ys6KLxV_ayAURLFjY9sA-47" value="" style="endArrow=none;html=1;rounded=0;exitX=0.5;exitY=1;exitDx=0;exitDy=0;entryX=0.5;entryY=0;entryDx=0;entryDy=0;" edge="1" parent="1" source="Ys6KLxV_ayAURLFjY9sA-33" target="Ys6KLxV_ayAURLFjY9sA-35">
          <mxGeometry width="50" height="50" relative="1" as="geometry">
            <mxPoint x="361" y="880" as="sourcePoint" />
            <mxPoint x="414" y="880" as="targetPoint" />
          </mxGeometry>
        </mxCell>
        <mxCell id="Ys6KLxV_ayAURLFjY9sA-49" value="TEATRO" style="rounded=0;whiteSpace=wrap;html=1;" vertex="1" parent="1">
          <mxGeometry x="258" y="100" width="70" height="40" as="geometry" />
        </mxCell>
        <mxCell id="Ys6KLxV_ayAURLFjY9sA-50" value="Ciudad" style="ellipse;whiteSpace=wrap;html=1;" vertex="1" parent="1">
          <mxGeometry x="328" y="174" width="70" height="40" as="geometry" />
        </mxCell>
        <mxCell id="Ys6KLxV_ayAURLFjY9sA-51" value="Nombre" style="ellipse;whiteSpace=wrap;html=1;" vertex="1" parent="1">
          <mxGeometry x="188" y="174" width="70" height="40" as="geometry" />
        </mxCell>
        <mxCell id="Ys6KLxV_ayAURLFjY9sA-52" value="&lt;u&gt;Codigo&lt;/u&gt;" style="ellipse;whiteSpace=wrap;html=1;" vertex="1" parent="1">
          <mxGeometry x="368" y="100" width="70" height="40" as="geometry" />
        </mxCell>
        <mxCell id="Ys6KLxV_ayAURLFjY9sA-53" value="Aforo" style="ellipse;whiteSpace=wrap;html=1;" vertex="1" parent="1">
          <mxGeometry x="152" y="100" width="70" height="40" as="geometry" />
        </mxCell>
        <mxCell id="Ys6KLxV_ayAURLFjY9sA-54" value="" style="rounded=0;orthogonalLoop=1;jettySize=auto;html=1;endArrow=none;endFill=0;exitX=1;exitY=0.5;exitDx=0;exitDy=0;entryX=0;entryY=0.5;entryDx=0;entryDy=0;" edge="1" parent="1" source="Ys6KLxV_ayAURLFjY9sA-49" target="Ys6KLxV_ayAURLFjY9sA-52">
          <mxGeometry relative="1" as="geometry">
            <mxPoint x="262" y="-187" as="sourcePoint" />
            <mxPoint x="388" y="164" as="targetPoint" />
          </mxGeometry>
        </mxCell>
        <mxCell id="Ys6KLxV_ayAURLFjY9sA-55" value="" style="rounded=0;orthogonalLoop=1;jettySize=auto;html=1;endArrow=none;endFill=0;exitX=0.75;exitY=1;exitDx=0;exitDy=0;entryX=0.5;entryY=0;entryDx=0;entryDy=0;" edge="1" parent="1" source="Ys6KLxV_ayAURLFjY9sA-49" target="Ys6KLxV_ayAURLFjY9sA-50">
          <mxGeometry relative="1" as="geometry">
            <mxPoint x="338" y="130" as="sourcePoint" />
            <mxPoint x="378" y="130" as="targetPoint" />
          </mxGeometry>
        </mxCell>
        <mxCell id="Ys6KLxV_ayAURLFjY9sA-56" value="" style="rounded=0;orthogonalLoop=1;jettySize=auto;html=1;endArrow=none;endFill=0;exitX=0.25;exitY=1;exitDx=0;exitDy=0;entryX=0.5;entryY=0;entryDx=0;entryDy=0;" edge="1" parent="1" source="Ys6KLxV_ayAURLFjY9sA-49" target="Ys6KLxV_ayAURLFjY9sA-51">
          <mxGeometry relative="1" as="geometry">
            <mxPoint x="348" y="140" as="sourcePoint" />
            <mxPoint x="388" y="140" as="targetPoint" />
          </mxGeometry>
        </mxCell>
        <mxCell id="Ys6KLxV_ayAURLFjY9sA-57" value="" style="rounded=0;orthogonalLoop=1;jettySize=auto;html=1;endArrow=none;endFill=0;exitX=1;exitY=0.5;exitDx=0;exitDy=0;entryX=0;entryY=0.5;entryDx=0;entryDy=0;" edge="1" parent="1" source="Ys6KLxV_ayAURLFjY9sA-53" target="Ys6KLxV_ayAURLFjY9sA-49">
          <mxGeometry relative="1" as="geometry">
            <mxPoint x="358" y="150" as="sourcePoint" />
            <mxPoint x="398" y="150" as="targetPoint" />
          </mxGeometry>
        </mxCell>
        <mxCell id="Ys6KLxV_ayAURLFjY9sA-58" value="" style="endArrow=none;html=1;rounded=0;entryX=0.5;entryY=1;entryDx=0;entryDy=0;exitX=0.5;exitY=0;exitDx=0;exitDy=0;" edge="1" parent="1" source="Ys6KLxV_ayAURLFjY9sA-59" target="Ys6KLxV_ayAURLFjY9sA-49">
          <mxGeometry width="50" height="50" relative="1" as="geometry">
            <mxPoint x="293" y="190" as="sourcePoint" />
            <mxPoint x="304" y="399" as="targetPoint" />
          </mxGeometry>
        </mxCell>
        <mxCell id="Ys6KLxV_ayAURLFjY9sA-59" value="Representar" style="rhombus;whiteSpace=wrap;html=1;" vertex="1" parent="1">
          <mxGeometry x="243" y="200" width="100" height="69" as="geometry" />
        </mxCell>
        <mxCell id="Ys6KLxV_ayAURLFjY9sA-60" value="" style="endArrow=none;html=1;rounded=0;entryX=0.5;entryY=1;entryDx=0;entryDy=0;exitX=1;exitY=0;exitDx=0;exitDy=0;" edge="1" parent="1" source="hlXV9Y0_xZ3Ad-fcJKW2-2" target="Ys6KLxV_ayAURLFjY9sA-59">
          <mxGeometry width="50" height="50" relative="1" as="geometry">
            <mxPoint x="303" y="210" as="sourcePoint" />
            <mxPoint x="303" y="150" as="targetPoint" />
          </mxGeometry>
        </mxCell>
        <mxCell id="Ys6KLxV_ayAURLFjY9sA-61" value="" style="endArrow=none;html=1;rounded=0;entryX=0;entryY=1;entryDx=0;entryDy=0;exitX=0.5;exitY=0;exitDx=0;exitDy=0;" edge="1" parent="1" source="Ys6KLxV_ayAURLFjY9sA-62" target="hlXV9Y0_xZ3Ad-fcJKW2-2">
          <mxGeometry width="50" height="50" relative="1" as="geometry">
            <mxPoint x="164" y="480" as="sourcePoint" />
            <mxPoint x="170" y="434" as="targetPoint" />
          </mxGeometry>
        </mxCell>
        <mxCell id="Ys6KLxV_ayAURLFjY9sA-62" value="Protagonizar" style="rhombus;whiteSpace=wrap;html=1;" vertex="1" parent="1">
          <mxGeometry x="70" y="733.5" width="100" height="69" as="geometry" />
        </mxCell>
        <mxCell id="Ys6KLxV_ayAURLFjY9sA-63" value="" style="endArrow=none;html=1;rounded=0;entryX=0;entryY=0;entryDx=0;entryDy=0;exitX=0.5;exitY=1;exitDx=0;exitDy=0;" edge="1" parent="1" source="Ys6KLxV_ayAURLFjY9sA-62" target="Ys6KLxV_ayAURLFjY9sA-33">
          <mxGeometry width="50" height="50" relative="1" as="geometry">
            <mxPoint x="10" y="801" as="sourcePoint" />
            <mxPoint x="72" y="670" as="targetPoint" />
          </mxGeometry>
        </mxCell>
        <mxCell id="Ys6KLxV_ayAURLFjY9sA-64" value="Fecha inicio" style="ellipse;whiteSpace=wrap;html=1;" vertex="1" parent="1">
          <mxGeometry x="382" y="209.5" width="102" height="50" as="geometry" />
        </mxCell>
        <mxCell id="Ys6KLxV_ayAURLFjY9sA-65" value="Fecha fin" style="ellipse;whiteSpace=wrap;html=1;" vertex="1" parent="1">
          <mxGeometry x="100" y="209.5" width="102" height="50" as="geometry" />
        </mxCell>
        <mxCell id="Ys6KLxV_ayAURLFjY9sA-66" value="" style="rounded=0;orthogonalLoop=1;jettySize=auto;html=1;endArrow=none;endFill=0;exitX=1;exitY=0.5;exitDx=0;exitDy=0;entryX=0;entryY=0.5;entryDx=0;entryDy=0;" edge="1" parent="1" source="Ys6KLxV_ayAURLFjY9sA-65" target="Ys6KLxV_ayAURLFjY9sA-59">
          <mxGeometry relative="1" as="geometry">
            <mxPoint x="338" y="130" as="sourcePoint" />
            <mxPoint x="378" y="130" as="targetPoint" />
          </mxGeometry>
        </mxCell>
        <mxCell id="Ys6KLxV_ayAURLFjY9sA-67" style="rounded=0;orthogonalLoop=1;jettySize=auto;html=1;entryX=1;entryY=0.5;entryDx=0;entryDy=0;exitX=0;exitY=0.5;exitDx=0;exitDy=0;endArrow=none;endFill=0;" edge="1" parent="1" source="Ys6KLxV_ayAURLFjY9sA-64" target="Ys6KLxV_ayAURLFjY9sA-59">
          <mxGeometry relative="1" as="geometry" />
        </mxCell>
      </root>
    </mxGraphModel>
  </diagram>
  <diagram id="-AtTLKrpf7NsLsR-5cHh" name="Página-2">
    <mxGraphModel dx="1232" dy="1187" grid="1" gridSize="10" guides="1" tooltips="1" connect="1" arrows="1" fold="1" page="1" pageScale="1" pageWidth="827" pageHeight="1169" math="0" shadow="0">
      <root>
        <mxCell id="0" />
        <mxCell id="1" parent="0" />
        <mxCell id="WnP_47qUys3P5DPN7GAK-1" value="JUEGO ORDENADOR" style="text;html=1;align=center;verticalAlign=middle;resizable=0;points=[];autosize=1;strokeColor=none;fillColor=none;" parent="1" vertex="1">
          <mxGeometry x="339" y="8" width="150" height="30" as="geometry" />
        </mxCell>
        <mxCell id="SKtkKfkr3DA-_Yopp5Yw-1" value="PERSONAJE" style="rounded=0;whiteSpace=wrap;html=1;" vertex="1" parent="1">
          <mxGeometry x="190" y="163" width="90" height="37" as="geometry" />
        </mxCell>
        <mxCell id="SKtkKfkr3DA-_Yopp5Yw-2" value="&lt;u&gt;Nombre&lt;/u&gt;" style="ellipse;whiteSpace=wrap;html=1;" vertex="1" parent="1">
          <mxGeometry x="40" y="38" width="90" height="50" as="geometry" />
        </mxCell>
        <mxCell id="SKtkKfkr3DA-_Yopp5Yw-3" value="Fuerza" style="ellipse;whiteSpace=wrap;html=1;" vertex="1" parent="1">
          <mxGeometry x="40" y="98" width="90" height="50" as="geometry" />
        </mxCell>
        <mxCell id="SKtkKfkr3DA-_Yopp5Yw-4" value="Inteligencia" style="ellipse;whiteSpace=wrap;html=1;" vertex="1" parent="1">
          <mxGeometry x="40" y="158" width="90" height="50" as="geometry" />
        </mxCell>
        <mxCell id="SKtkKfkr3DA-_Yopp5Yw-5" value="Habilidad" style="ellipse;whiteSpace=wrap;html=1;" vertex="1" parent="1">
          <mxGeometry x="40" y="218" width="90" height="50" as="geometry" />
        </mxCell>
        <mxCell id="SKtkKfkr3DA-_Yopp5Yw-6" value="EscenarioActual" style="ellipse;whiteSpace=wrap;html=1;" vertex="1" parent="1">
          <mxGeometry x="10" y="278" width="120" height="70" as="geometry" />
        </mxCell>
        <mxCell id="SKtkKfkr3DA-_Yopp5Yw-7" value="" style="endArrow=none;html=1;rounded=0;exitX=0;exitY=0.5;exitDx=0;exitDy=0;entryX=1;entryY=0.5;entryDx=0;entryDy=0;" edge="1" parent="1" source="SKtkKfkr3DA-_Yopp5Yw-1" target="SKtkKfkr3DA-_Yopp5Yw-2">
          <mxGeometry width="50" height="50" relative="1" as="geometry">
            <mxPoint x="200" y="118" as="sourcePoint" />
            <mxPoint x="250" y="68" as="targetPoint" />
            <Array as="points">
              <mxPoint x="160" y="120" />
            </Array>
          </mxGeometry>
        </mxCell>
        <mxCell id="SKtkKfkr3DA-_Yopp5Yw-8" value="" style="endArrow=none;html=1;rounded=0;entryX=1;entryY=0.5;entryDx=0;entryDy=0;exitX=0;exitY=0.5;exitDx=0;exitDy=0;" edge="1" parent="1" source="SKtkKfkr3DA-_Yopp5Yw-1" target="SKtkKfkr3DA-_Yopp5Yw-3">
          <mxGeometry width="50" height="50" relative="1" as="geometry">
            <mxPoint x="270" y="238" as="sourcePoint" />
            <mxPoint x="140" y="73" as="targetPoint" />
          </mxGeometry>
        </mxCell>
        <mxCell id="SKtkKfkr3DA-_Yopp5Yw-9" value="" style="endArrow=none;html=1;rounded=0;exitX=0;exitY=0.5;exitDx=0;exitDy=0;entryX=1;entryY=0.5;entryDx=0;entryDy=0;" edge="1" parent="1" source="SKtkKfkr3DA-_Yopp5Yw-1" target="SKtkKfkr3DA-_Yopp5Yw-4">
          <mxGeometry width="50" height="50" relative="1" as="geometry">
            <mxPoint x="340" y="208" as="sourcePoint" />
            <mxPoint x="150" y="83" as="targetPoint" />
          </mxGeometry>
        </mxCell>
        <mxCell id="SKtkKfkr3DA-_Yopp5Yw-10" value="" style="endArrow=none;html=1;rounded=0;exitX=0;exitY=0.5;exitDx=0;exitDy=0;entryX=1;entryY=0.5;entryDx=0;entryDy=0;" edge="1" parent="1" source="SKtkKfkr3DA-_Yopp5Yw-1" target="SKtkKfkr3DA-_Yopp5Yw-5">
          <mxGeometry width="50" height="50" relative="1" as="geometry">
            <mxPoint x="350" y="218" as="sourcePoint" />
            <mxPoint x="160" y="93" as="targetPoint" />
          </mxGeometry>
        </mxCell>
        <mxCell id="SKtkKfkr3DA-_Yopp5Yw-11" value="" style="endArrow=none;html=1;rounded=0;exitX=0;exitY=0.5;exitDx=0;exitDy=0;entryX=1;entryY=0.5;entryDx=0;entryDy=0;" edge="1" parent="1" source="SKtkKfkr3DA-_Yopp5Yw-1" target="SKtkKfkr3DA-_Yopp5Yw-6">
          <mxGeometry width="50" height="50" relative="1" as="geometry">
            <mxPoint x="360" y="228" as="sourcePoint" />
            <mxPoint x="170" y="103" as="targetPoint" />
          </mxGeometry>
        </mxCell>
        <mxCell id="SKtkKfkr3DA-_Yopp5Yw-12" value="" style="endArrow=none;html=1;rounded=0;entryX=1;entryY=0.5;entryDx=0;entryDy=0;exitX=0;exitY=0.5;exitDx=0;exitDy=0;" edge="1" parent="1" source="SKtkKfkr3DA-_Yopp5Yw-13" target="SKtkKfkr3DA-_Yopp5Yw-1">
          <mxGeometry width="50" height="50" relative="1" as="geometry">
            <mxPoint x="370" y="183" as="sourcePoint" />
            <mxPoint x="360" y="180" as="targetPoint" />
          </mxGeometry>
        </mxCell>
        <mxCell id="SKtkKfkr3DA-_Yopp5Yw-13" value="Tener" style="rhombus;whiteSpace=wrap;html=1;" vertex="1" parent="1">
          <mxGeometry x="350" y="148" width="96" height="68.5" as="geometry" />
        </mxCell>
        <mxCell id="SKtkKfkr3DA-_Yopp5Yw-14" value="" style="endArrow=none;html=1;rounded=0;entryX=1;entryY=0.5;entryDx=0;entryDy=0;exitX=0;exitY=0.5;exitDx=0;exitDy=0;" edge="1" parent="1" source="SKtkKfkr3DA-_Yopp5Yw-15" target="SKtkKfkr3DA-_Yopp5Yw-13">
          <mxGeometry width="50" height="50" relative="1" as="geometry">
            <mxPoint x="532" y="183.25" as="sourcePoint" />
            <mxPoint x="438" y="183.25" as="targetPoint" />
          </mxGeometry>
        </mxCell>
        <mxCell id="SKtkKfkr3DA-_Yopp5Yw-15" value="OBJETO" style="rounded=0;whiteSpace=wrap;html=1;" vertex="1" parent="1">
          <mxGeometry x="504" y="163" width="90" height="37" as="geometry" />
        </mxCell>
        <mxCell id="SKtkKfkr3DA-_Yopp5Yw-16" value="&lt;u&gt;CodigoObjeto&lt;/u&gt;" style="ellipse;whiteSpace=wrap;html=1;" vertex="1" parent="1">
          <mxGeometry x="640" y="128.38" width="90" height="50" as="geometry" />
        </mxCell>
        <mxCell id="SKtkKfkr3DA-_Yopp5Yw-17" value="Escenario" style="ellipse;whiteSpace=wrap;html=1;" vertex="1" parent="1">
          <mxGeometry x="640" y="187.63" width="90" height="50" as="geometry" />
        </mxCell>
        <mxCell id="SKtkKfkr3DA-_Yopp5Yw-18" value="" style="endArrow=none;html=1;rounded=0;exitX=0.5;exitY=0;exitDx=0;exitDy=0;entryX=0.5;entryY=1;entryDx=0;entryDy=0;" edge="1" parent="1" source="SKtkKfkr3DA-_Yopp5Yw-13" target="SKtkKfkr3DA-_Yopp5Yw-19">
          <mxGeometry width="50" height="50" relative="1" as="geometry">
            <mxPoint x="360" y="192" as="sourcePoint" />
            <mxPoint x="430" y="130" as="targetPoint" />
          </mxGeometry>
        </mxCell>
        <mxCell id="SKtkKfkr3DA-_Yopp5Yw-19" value="FechaCaptura" style="ellipse;whiteSpace=wrap;html=1;" vertex="1" parent="1">
          <mxGeometry x="348" y="47.25" width="100" height="72.75" as="geometry" />
        </mxCell>
        <mxCell id="SKtkKfkr3DA-_Yopp5Yw-20" value="" style="endArrow=none;html=1;rounded=0;exitX=1;exitY=0.5;exitDx=0;exitDy=0;entryX=0;entryY=0.5;entryDx=0;entryDy=0;" edge="1" parent="1" source="SKtkKfkr3DA-_Yopp5Yw-15" target="SKtkKfkr3DA-_Yopp5Yw-16">
          <mxGeometry width="50" height="50" relative="1" as="geometry">
            <mxPoint x="200" y="192" as="sourcePoint" />
            <mxPoint x="140" y="73" as="targetPoint" />
          </mxGeometry>
        </mxCell>
        <mxCell id="SKtkKfkr3DA-_Yopp5Yw-21" value="" style="endArrow=none;html=1;rounded=0;exitX=0;exitY=0.5;exitDx=0;exitDy=0;entryX=1;entryY=0.5;entryDx=0;entryDy=0;" edge="1" parent="1" source="SKtkKfkr3DA-_Yopp5Yw-17" target="SKtkKfkr3DA-_Yopp5Yw-15">
          <mxGeometry width="50" height="50" relative="1" as="geometry">
            <mxPoint x="210" y="202" as="sourcePoint" />
            <mxPoint x="150" y="83" as="targetPoint" />
          </mxGeometry>
        </mxCell>
        <mxCell id="SKtkKfkr3DA-_Yopp5Yw-22" value="ESCENARIO" style="rounded=0;whiteSpace=wrap;html=1;" vertex="1" parent="1">
          <mxGeometry x="489" y="405.5" width="90" height="41.5" as="geometry" />
        </mxCell>
        <mxCell id="SKtkKfkr3DA-_Yopp5Yw-23" value="&lt;u&gt;NumeroEscenario&lt;/u&gt;" style="ellipse;whiteSpace=wrap;html=1;" vertex="1" parent="1">
          <mxGeometry x="619" y="355" width="121" height="69.5" as="geometry" />
        </mxCell>
        <mxCell id="SKtkKfkr3DA-_Yopp5Yw-24" value="Riesgo&amp;nbsp;" style="ellipse;whiteSpace=wrap;html=1;" vertex="1" parent="1">
          <mxGeometry x="599" y="535" width="90" height="50" as="geometry" />
        </mxCell>
        <mxCell id="SKtkKfkr3DA-_Yopp5Yw-25" value="Tiempo" style="ellipse;whiteSpace=wrap;html=1;" vertex="1" parent="1">
          <mxGeometry x="649" y="459" width="90" height="50" as="geometry" />
        </mxCell>
        <mxCell id="SKtkKfkr3DA-_Yopp5Yw-27" value="Pueden&amp;nbsp;&lt;div&gt;ser&lt;/div&gt;" style="strokeWidth=2;html=1;shape=mxgraph.flowchart.merge_or_storage;whiteSpace=wrap;" vertex="1" parent="1">
          <mxGeometry x="170" y="283" width="130" height="60" as="geometry" />
        </mxCell>
        <mxCell id="SKtkKfkr3DA-_Yopp5Yw-28" value="" style="endArrow=none;html=1;rounded=0;exitX=0.5;exitY=1;exitDx=0;exitDy=0;entryX=0.5;entryY=0;entryDx=0;entryDy=0;entryPerimeter=0;" edge="1" parent="1" source="SKtkKfkr3DA-_Yopp5Yw-1" target="SKtkKfkr3DA-_Yopp5Yw-27">
          <mxGeometry width="50" height="50" relative="1" as="geometry">
            <mxPoint x="200" y="192" as="sourcePoint" />
            <mxPoint x="140" y="323" as="targetPoint" />
          </mxGeometry>
        </mxCell>
        <mxCell id="SKtkKfkr3DA-_Yopp5Yw-29" value="" style="endArrow=none;html=1;rounded=0;exitX=0.5;exitY=1;exitDx=0;exitDy=0;exitPerimeter=0;entryX=0.5;entryY=0;entryDx=0;entryDy=0;" edge="1" parent="1" source="SKtkKfkr3DA-_Yopp5Yw-27" target="SKtkKfkr3DA-_Yopp5Yw-31">
          <mxGeometry width="50" height="50" relative="1" as="geometry">
            <mxPoint x="234.5" y="337.5" as="sourcePoint" />
            <mxPoint x="235" y="400" as="targetPoint" />
          </mxGeometry>
        </mxCell>
        <mxCell id="SKtkKfkr3DA-_Yopp5Yw-30" value="Soldados&amp;nbsp;" style="rounded=0;whiteSpace=wrap;html=1;" vertex="1" parent="1">
          <mxGeometry x="110" y="385" width="70" height="39" as="geometry" />
        </mxCell>
        <mxCell id="SKtkKfkr3DA-_Yopp5Yw-31" value="Hechiceros" style="rounded=0;whiteSpace=wrap;html=1;" vertex="1" parent="1">
          <mxGeometry x="190" y="385" width="90" height="39" as="geometry" />
        </mxCell>
        <mxCell id="SKtkKfkr3DA-_Yopp5Yw-32" value="Bichos" style="rounded=0;whiteSpace=wrap;html=1;" vertex="1" parent="1">
          <mxGeometry x="290" y="385" width="60" height="39" as="geometry" />
        </mxCell>
        <mxCell id="SKtkKfkr3DA-_Yopp5Yw-33" value="" style="endArrow=none;html=1;rounded=0;" edge="1" parent="1">
          <mxGeometry width="50" height="50" relative="1" as="geometry">
            <mxPoint x="320" y="364" as="sourcePoint" />
            <mxPoint x="144" y="364" as="targetPoint" />
          </mxGeometry>
        </mxCell>
        <mxCell id="SKtkKfkr3DA-_Yopp5Yw-34" value="" style="endArrow=none;html=1;rounded=0;entryX=0.5;entryY=0;entryDx=0;entryDy=0;" edge="1" parent="1" target="SKtkKfkr3DA-_Yopp5Yw-32">
          <mxGeometry width="50" height="50" relative="1" as="geometry">
            <mxPoint x="320" y="364" as="sourcePoint" />
            <mxPoint x="245" y="257" as="targetPoint" />
          </mxGeometry>
        </mxCell>
        <mxCell id="SKtkKfkr3DA-_Yopp5Yw-35" value="" style="endArrow=none;html=1;rounded=0;entryX=0.5;entryY=0;entryDx=0;entryDy=0;" edge="1" parent="1" target="SKtkKfkr3DA-_Yopp5Yw-30">
          <mxGeometry width="50" height="50" relative="1" as="geometry">
            <mxPoint x="145" y="364" as="sourcePoint" />
            <mxPoint x="150" y="381.5" as="targetPoint" />
          </mxGeometry>
        </mxCell>
        <mxCell id="SKtkKfkr3DA-_Yopp5Yw-37" value="" style="endArrow=none;html=1;rounded=0;exitX=1;exitY=0.5;exitDx=0;exitDy=0;entryX=0;entryY=0.5;entryDx=0;entryDy=0;" edge="1" parent="1" source="SKtkKfkr3DA-_Yopp5Yw-22" target="SKtkKfkr3DA-_Yopp5Yw-23">
          <mxGeometry width="50" height="50" relative="1" as="geometry">
            <mxPoint x="583" y="297" as="sourcePoint" />
            <mxPoint x="629" y="268" as="targetPoint" />
          </mxGeometry>
        </mxCell>
        <mxCell id="SKtkKfkr3DA-_Yopp5Yw-38" value="" style="endArrow=none;html=1;rounded=0;exitX=1;exitY=0.5;exitDx=0;exitDy=0;entryX=0;entryY=0.5;entryDx=0;entryDy=0;" edge="1" parent="1" source="SKtkKfkr3DA-_Yopp5Yw-22" target="SKtkKfkr3DA-_Yopp5Yw-25">
          <mxGeometry width="50" height="50" relative="1" as="geometry">
            <mxPoint x="593" y="307" as="sourcePoint" />
            <mxPoint x="639" y="278" as="targetPoint" />
          </mxGeometry>
        </mxCell>
        <mxCell id="SKtkKfkr3DA-_Yopp5Yw-39" value="" style="endArrow=none;html=1;rounded=0;exitX=1;exitY=0.5;exitDx=0;exitDy=0;entryX=0.5;entryY=0;entryDx=0;entryDy=0;" edge="1" parent="1" source="SKtkKfkr3DA-_Yopp5Yw-22" target="SKtkKfkr3DA-_Yopp5Yw-24">
          <mxGeometry width="50" height="50" relative="1" as="geometry">
            <mxPoint x="603" y="317" as="sourcePoint" />
            <mxPoint x="649" y="288" as="targetPoint" />
          </mxGeometry>
        </mxCell>
        <mxCell id="SKtkKfkr3DA-_Yopp5Yw-40" value="" style="endArrow=none;html=1;rounded=0;exitX=1;exitY=1;exitDx=0;exitDy=0;entryX=0;entryY=0;entryDx=0;entryDy=0;" edge="1" parent="1" source="SKtkKfkr3DA-_Yopp5Yw-1" target="SKtkKfkr3DA-_Yopp5Yw-41">
          <mxGeometry width="50" height="50" relative="1" as="geometry">
            <mxPoint x="245" y="210" as="sourcePoint" />
            <mxPoint x="400" y="320" as="targetPoint" />
          </mxGeometry>
        </mxCell>
        <mxCell id="SKtkKfkr3DA-_Yopp5Yw-41" value="Ubicar" style="rhombus;whiteSpace=wrap;html=1;" vertex="1" parent="1">
          <mxGeometry x="366" y="274.5" width="96" height="68.5" as="geometry" />
        </mxCell>
        <mxCell id="SKtkKfkr3DA-_Yopp5Yw-42" value="" style="endArrow=none;html=1;rounded=0;exitX=1;exitY=1;exitDx=0;exitDy=0;entryX=0.5;entryY=0;entryDx=0;entryDy=0;" edge="1" parent="1" source="SKtkKfkr3DA-_Yopp5Yw-41" target="SKtkKfkr3DA-_Yopp5Yw-22">
          <mxGeometry width="50" height="50" relative="1" as="geometry">
            <mxPoint x="440" y="340" as="sourcePoint" />
            <mxPoint x="560" y="390" as="targetPoint" />
          </mxGeometry>
        </mxCell>
        <mxCell id="SKtkKfkr3DA-_Yopp5Yw-43" value="" style="endArrow=none;html=1;rounded=0;exitX=0.5;exitY=1;exitDx=0;exitDy=0;entryX=0.5;entryY=0;entryDx=0;entryDy=0;" edge="1" parent="1" source="SKtkKfkr3DA-_Yopp5Yw-15" target="SKtkKfkr3DA-_Yopp5Yw-44">
          <mxGeometry width="50" height="50" relative="1" as="geometry">
            <mxPoint x="245" y="210" as="sourcePoint" />
            <mxPoint x="549" y="260" as="targetPoint" />
          </mxGeometry>
        </mxCell>
        <mxCell id="SKtkKfkr3DA-_Yopp5Yw-44" value="Tener" style="rhombus;whiteSpace=wrap;html=1;" vertex="1" parent="1">
          <mxGeometry x="501" y="274.5" width="96" height="68.5" as="geometry" />
        </mxCell>
        <mxCell id="SKtkKfkr3DA-_Yopp5Yw-46" value="" style="endArrow=none;html=1;rounded=0;exitX=0.5;exitY=1;exitDx=0;exitDy=0;entryX=0.667;entryY=0.012;entryDx=0;entryDy=0;entryPerimeter=0;" edge="1" parent="1" source="SKtkKfkr3DA-_Yopp5Yw-44" target="SKtkKfkr3DA-_Yopp5Yw-22">
          <mxGeometry width="50" height="50" relative="1" as="geometry">
            <mxPoint x="559" y="210" as="sourcePoint" />
            <mxPoint x="550" y="400" as="targetPoint" />
          </mxGeometry>
        </mxCell>
        <mxCell id="SKtkKfkr3DA-_Yopp5Yw-47" value="Rango" style="ellipse;whiteSpace=wrap;html=1;" vertex="1" parent="1">
          <mxGeometry x="110" y="442" width="70" height="39" as="geometry" />
        </mxCell>
        <mxCell id="SKtkKfkr3DA-_Yopp5Yw-48" value="PotenciaMagia" style="ellipse;whiteSpace=wrap;html=1;" vertex="1" parent="1">
          <mxGeometry x="184" y="469" width="101" height="61" as="geometry" />
        </mxCell>
        <mxCell id="SKtkKfkr3DA-_Yopp5Yw-49" value="Armas" style="ellipse;whiteSpace=wrap;html=1;" vertex="1" parent="1">
          <mxGeometry x="285" y="442" width="70" height="39" as="geometry" />
        </mxCell>
        <mxCell id="SKtkKfkr3DA-_Yopp5Yw-50" value="" style="endArrow=none;html=1;rounded=0;exitX=0.5;exitY=0;exitDx=0;exitDy=0;entryX=0.5;entryY=1;entryDx=0;entryDy=0;" edge="1" parent="1" source="SKtkKfkr3DA-_Yopp5Yw-47" target="SKtkKfkr3DA-_Yopp5Yw-30">
          <mxGeometry width="50" height="50" relative="1" as="geometry">
            <mxPoint x="589" y="417" as="sourcePoint" />
            <mxPoint x="629" y="381" as="targetPoint" />
          </mxGeometry>
        </mxCell>
        <mxCell id="SKtkKfkr3DA-_Yopp5Yw-51" value="" style="endArrow=none;html=1;rounded=0;exitX=0.5;exitY=0;exitDx=0;exitDy=0;entryX=0.5;entryY=1;entryDx=0;entryDy=0;" edge="1" parent="1" source="SKtkKfkr3DA-_Yopp5Yw-48" target="SKtkKfkr3DA-_Yopp5Yw-31">
          <mxGeometry width="50" height="50" relative="1" as="geometry">
            <mxPoint x="154" y="472" as="sourcePoint" />
            <mxPoint x="155" y="434" as="targetPoint" />
          </mxGeometry>
        </mxCell>
        <mxCell id="SKtkKfkr3DA-_Yopp5Yw-52" value="" style="endArrow=none;html=1;rounded=0;exitX=0.5;exitY=0;exitDx=0;exitDy=0;entryX=0.5;entryY=1;entryDx=0;entryDy=0;" edge="1" parent="1" source="SKtkKfkr3DA-_Yopp5Yw-49" target="SKtkKfkr3DA-_Yopp5Yw-32">
          <mxGeometry width="50" height="50" relative="1" as="geometry">
            <mxPoint x="164" y="482" as="sourcePoint" />
            <mxPoint x="165" y="444" as="targetPoint" />
          </mxGeometry>
        </mxCell>
        <mxCell id="SKtkKfkr3DA-_Yopp5Yw-53" value="Dominar" style="rhombus;whiteSpace=wrap;html=1;" vertex="1" parent="1">
          <mxGeometry x="186.5" y="47.25" width="96" height="68.5" as="geometry" />
        </mxCell>
        <mxCell id="SKtkKfkr3DA-_Yopp5Yw-55" value="" style="endArrow=none;html=1;rounded=0;exitX=0.75;exitY=0;exitDx=0;exitDy=0;entryX=1;entryY=1;entryDx=0;entryDy=0;" edge="1" parent="1" source="SKtkKfkr3DA-_Yopp5Yw-1" target="SKtkKfkr3DA-_Yopp5Yw-53">
          <mxGeometry width="50" height="50" relative="1" as="geometry">
            <mxPoint x="380" y="212.88" as="sourcePoint" />
            <mxPoint x="320" y="93.88" as="targetPoint" />
            <Array as="points" />
          </mxGeometry>
        </mxCell>
        <mxCell id="SKtkKfkr3DA-_Yopp5Yw-56" value="" style="endArrow=none;html=1;rounded=0;entryX=0;entryY=1;entryDx=0;entryDy=0;" edge="1" parent="1" target="SKtkKfkr3DA-_Yopp5Yw-53">
          <mxGeometry width="50" height="50" relative="1" as="geometry">
            <mxPoint x="210" y="163" as="sourcePoint" />
            <mxPoint x="408" y="130" as="targetPoint" />
          </mxGeometry>
        </mxCell>
        <mxCell id="SKtkKfkr3DA-_Yopp5Yw-57" value="Dominar" style="rhombus;whiteSpace=wrap;html=1;" vertex="1" parent="1">
          <mxGeometry x="184" y="535" width="96" height="68.5" as="geometry" />
        </mxCell>
        <mxCell id="SKtkKfkr3DA-_Yopp5Yw-58" value="" style="endArrow=none;html=1;rounded=0;exitX=0;exitY=0.5;exitDx=0;exitDy=0;" edge="1" parent="1" source="SKtkKfkr3DA-_Yopp5Yw-57">
          <mxGeometry width="50" height="50" relative="1" as="geometry">
            <mxPoint x="190" y="624.75" as="sourcePoint" />
            <mxPoint x="80" y="570" as="targetPoint" />
          </mxGeometry>
        </mxCell>
        <mxCell id="SKtkKfkr3DA-_Yopp5Yw-59" value="" style="endArrow=none;html=1;rounded=0;entryX=1;entryY=0.5;entryDx=0;entryDy=0;" edge="1" parent="1" target="SKtkKfkr3DA-_Yopp5Yw-57">
          <mxGeometry width="50" height="50" relative="1" as="geometry">
            <mxPoint x="400" y="569" as="sourcePoint" />
            <mxPoint x="369" y="568.75" as="targetPoint" />
          </mxGeometry>
        </mxCell>
        <mxCell id="SKtkKfkr3DA-_Yopp5Yw-60" value="" style="endArrow=none;html=1;rounded=0;" edge="1" parent="1">
          <mxGeometry width="50" height="50" relative="1" as="geometry">
            <mxPoint x="400" y="400" as="sourcePoint" />
            <mxPoint x="400" y="570" as="targetPoint" />
          </mxGeometry>
        </mxCell>
        <mxCell id="SKtkKfkr3DA-_Yopp5Yw-61" value="" style="endArrow=none;html=1;rounded=0;entryX=1;entryY=0.5;entryDx=0;entryDy=0;" edge="1" parent="1">
          <mxGeometry width="50" height="50" relative="1" as="geometry">
            <mxPoint x="400" y="400" as="sourcePoint" />
            <mxPoint x="350" y="400" as="targetPoint" />
          </mxGeometry>
        </mxCell>
        <mxCell id="SKtkKfkr3DA-_Yopp5Yw-62" value="(1,1)" style="text;html=1;align=center;verticalAlign=middle;resizable=0;points=[];autosize=1;strokeColor=none;fillColor=none;" vertex="1" parent="1">
          <mxGeometry x="280" y="535" width="50" height="30" as="geometry" />
        </mxCell>
        <mxCell id="SKtkKfkr3DA-_Yopp5Yw-63" value="(N,M)" style="text;html=1;align=center;verticalAlign=middle;resizable=0;points=[];autosize=1;strokeColor=none;fillColor=none;" vertex="1" parent="1">
          <mxGeometry x="454" y="151.63" width="50" height="30" as="geometry" />
        </mxCell>
        <mxCell id="SKtkKfkr3DA-_Yopp5Yw-65" value="(0,N)" style="text;html=1;align=center;verticalAlign=middle;resizable=0;points=[];autosize=1;strokeColor=none;fillColor=none;" vertex="1" parent="1">
          <mxGeometry x="280" y="151.63" width="50" height="30" as="geometry" />
        </mxCell>
        <mxCell id="SKtkKfkr3DA-_Yopp5Yw-66" value="" style="endArrow=none;html=1;rounded=0;" edge="1" parent="1">
          <mxGeometry width="50" height="50" relative="1" as="geometry">
            <mxPoint x="110" y="405.5" as="sourcePoint" />
            <mxPoint x="80" y="406" as="targetPoint" />
          </mxGeometry>
        </mxCell>
        <mxCell id="SKtkKfkr3DA-_Yopp5Yw-67" value="" style="endArrow=none;html=1;rounded=0;" edge="1" parent="1">
          <mxGeometry width="50" height="50" relative="1" as="geometry">
            <mxPoint x="80" y="409" as="sourcePoint" />
            <mxPoint x="80" y="568" as="targetPoint" />
          </mxGeometry>
        </mxCell>
        <mxCell id="SKtkKfkr3DA-_Yopp5Yw-68" value="(1,1)" style="text;html=1;align=center;verticalAlign=middle;resizable=0;points=[];autosize=1;strokeColor=none;fillColor=none;" vertex="1" parent="1">
          <mxGeometry x="470" y="375.5" width="50" height="30" as="geometry" />
        </mxCell>
        <mxCell id="SKtkKfkr3DA-_Yopp5Yw-69" value="(N,1)" style="text;html=1;align=center;verticalAlign=middle;resizable=0;points=[];autosize=1;strokeColor=none;fillColor=none;" vertex="1" parent="1">
          <mxGeometry x="316" y="210" width="50" height="30" as="geometry" />
        </mxCell>
      </root>
    </mxGraphModel>
  </diagram>
</mxfile>
